<svg xmlns="http://www.w3.org/2000/svg" viewBox="0 0 1025.22 1088.66"><defs><style>.cls-1{fill:#231f20;}.cls-2{fill:none;stroke:#231f20;stroke-miterlimit:11.72;stroke-width:2px;}</style></defs><g id="Text"><path class="cls-1" d="M163.81,1009.92c-1-19.56-2.29-43.06-2.08-60.53h-.63c-4.78,16.43-10.6,33.9-17.68,53.25l-24.75,68H105l-22.67-66.77C75.62,984.13,70,966,66.05,949.39h-.41c-.42,17.47-1.46,41-2.71,62l-3.74,60.11H41.92L51.7,931.3H74.79l23.92,67.8c5.82,17.26,10.6,32.66,14.14,47.22h.62c3.54-14.15,8.53-29.54,14.77-47.22l25-67.8h23.09L185,1071.48H167.34Z" transform="translate(-41.92 -14.85)"/><path class="cls-1" d="M222.47,1024.48c.41,24.75,16.22,34.94,34.52,34.94,13.11,0,21-2.29,27.87-5.2l3.12,13.1c-6.44,2.91-17.47,6.24-33.48,6.24-31,0-49.51-20.38-49.51-50.75s17.89-54.28,47.22-54.28c32.86,0,41.6,28.91,41.6,47.42a68.63,68.63,0,0,1-.63,8.53Zm53.66-13.11c.21-11.65-4.79-29.74-25.38-29.74-18.51,0-26.62,17-28.08,29.74Z" transform="translate(-41.92 -14.85)"/><path class="cls-1" d="M383.66,970.81v14.56h-31.4v86.11h-18.1V985.37H302.75V970.81Z" transform="translate(-41.92 -14.85)"/><path class="cls-1" d="M417.36,970.81v40.56H465.2V970.81h18.1s0,6.32,0,15.64c0,4.66,0,10.32,0,16.22v68.81H465.2v-45.55H417.36v45.55H399.27V970.81Z" transform="translate(-41.92 -14.85)"/><path class="cls-1" d="M569,1071.48l-1.46-12.69h-.62c-5.62,7.91-16.43,15-30.78,15-20.39,0-30.79-14.35-30.79-28.91,0-24.34,21.64-37.65,60.53-37.44v-2.08c0-4.16.2-10.8.41-16-8.47-16.24-32.47-5.24-45.47-1.24-1-4-6-7-4-9,11-14,31-12,47-8,13,4,22,15,19.46,28.57a69,69,0,0,1,.7,10.06v37.65c0,8.73.41,17.26,1.66,24.12Zm-2.7-51.37c-20-.42-42.64,3.12-42.64,22.67,0,11.85,7.9,17.47,17.26,17.47,13.11,0,21.42-8.32,24.34-16.85a19.2,19.2,0,0,0,1-5.82Z" transform="translate(-41.92 -14.85)"/><path class="cls-1" d="M655.93,1008.46V1022H604.56v-13.52Z" transform="translate(-41.92 -14.85)"/><path class="cls-1" d="M676.94,972.06c7.07-1.25,20.18-2.29,32-2.29,16.85,0,44.72,2.71,44.72,25.17,0,12.48-9.57,20.18-21,22.67v.42c14.77,2.08,25.59,10.4,25.59,25,0,26.41-33.28,29.74-53,29.74-11.23,0-22.88-.83-28.29-1.25Zm17.27,87.36a111.34,111.34,0,0,0,14.76.83c12.27,0,30.58-2.91,30.58-17.47s-14.56-17.68-32-17.68H694.21Zm.2-46.38h13.73c13.52,0,27.46-4,27.46-15.81,0-10-8.74-14.77-27-14.77a131.33,131.33,0,0,0-14.15.83Z" transform="translate(-41.92 -14.85)"/><path class="cls-1" d="M837.1,1071.48l-1.46-12.69H835c-5.62,7.91-16.43,15-30.78,15-20.39,0-30.79-14.35-30.79-28.91,0-24.34,21.64-37.65,60.53-37.44v-2.08c0-8.32-2.29-23.29-22.88-23.29a50.24,50.24,0,0,0-26.21,7.48l-4.16-12.06c8.32-5.41,20.39-8.94,33.07-8.94,30.79,0,38.28,21,38.28,41.18v37.65c0,8.73.41,17.26,1.66,24.12Zm-2.7-51.37c-20-.42-42.64,3.12-42.64,22.67,0,11.85,7.9,17.47,17.26,17.47,13.1,0,21.42-8.32,24.34-16.85a19.2,19.2,0,0,0,1-5.82Z" transform="translate(-41.92 -14.85)"/><path class="cls-1" d="M959.61,970.81v86.94l10.4.21-1,45.55H954.62l-.83-32H884.11l-.83,32H868.93l-.84-45.55,8.53-.21a78.08,78.08,0,0,0,10-20.59A132.64,132.64,0,0,0,892.43,997V970.81Zm-51,30.58a133.41,133.41,0,0,1-5.2,37.44,96.07,96.07,0,0,1-8.11,18.72h46.38v-72.8H908.65Z" transform="translate(-41.92 -14.85)"/><path class="cls-1" d="M1067.14,1071.48h-18.09v-42.22h-13.52c-7.7,0-12.9,2.08-16.85,5.62-7.49,6-10.19,18.51-14.14,28.28a62.61,62.61,0,0,1-4.16,8.32H980.83a66.7,66.7,0,0,0,6.24-11.44c4.36-9.77,6.86-22.88,15.8-30.36a24,24,0,0,1,11.44-5.83v-.62c-13.1-1.46-26.62-9.57-26.62-25,0-10.4,5.62-17.47,13.31-21.84,8.32-4.78,20.59-6.86,33.7-6.86a280.22,280.22,0,0,1,32.44,2.08Zm-18.09-88.6a101.5,101.5,0,0,0-15.19-1c-12.48,0-27.24,3.53-27.24,17.47,0,12.89,16,17.47,26.83,17.47h15.6Z" transform="translate(-41.92 -14.85)"/></g><g id="Person"><path class="cls-1" d="M842.71,951.8A528.11,528.11,0,0,1,828,888.31c-10.29-61.54-2.56-83.28-17.57-111.5-2.21-4.14-8.67-15.48-10-31.37-.42-4.93-1.24-15.85,3.4-27.78,5-12.81,12.18-16.3,21.09-27.61,6.21-7.86,13.8-20.22,18.41-39.1.57-9.43-1.71-15.62-3.78-19.46C832.73,619,820.75,618,810.65,603.73a52.23,52.23,0,0,1-7.25-14.86,40.32,40.32,0,0,1,1.8-12.66c.93-3,1.7-5.35,3.68-7.65,3.1-3.59,5.76-3,9.22-5.39,5.59-3.79,7-10.87,9.4-23a101.48,101.48,0,0,0,1.67-12.58c1.45.7,4.81,1.16,6.27,1.85-1.36-1.54-2.85-3.12-4.21-4.67.12-2.08-.71-3.55,0-5.91.09-3.35-2.38-6.32-4.84-7.74a160.84,160.84,0,0,0-36.26-12.34,21.34,21.34,0,0,0-10.63,5.16c-1.1,1-2.27,1.46-3.37,2.34-2.06.07-2.72.5-5.39.39,1.26.92,4.61,2.44,5.87,3.36-1.38,2.12-3.29,5.18-5.38,9a102.83,102.83,0,0,0-4.73,9.36c-1.27,3-6,14.16-4.08,27.07.45,3.07.82,3.15,1.91,9.35,1.43,8.15,1.4,11.55-.07,14.81a11.26,11.26,0,0,1-2.84,4c-4.1,3.64-9.79,2.76-11,2.55a25.11,25.11,0,0,1-17.79-7.08,20.61,20.61,0,0,1-.92-10.49c1.53-8,7.83-11.06,12.47-18.14,2.81-4.28,5.79-11.22,5.39-22.4q-.71-5.44-1.42-10.91a33.1,33.1,0,0,0-9.64-16,31.29,31.29,0,0,0-5.41-3.89,32.13,32.13,0,0,0-2.66,4,34.85,34.85,0,0,0-4.26,17.15,60.47,60.47,0,0,1,.91,13.87,58.92,58.92,0,0,1-.91,7.81,227.89,227.89,0,0,1-20,28.76c-6.72,8.23-11.93,13.37-12.92,22.26A24.48,24.48,0,0,0,711.09,618a408.69,408.69,0,0,1-23,128.55,105.84,105.84,0,0,0-5.67,9.78A115.34,115.34,0,0,0,671.31,791c-.69,4.82-.91,8.87-2.46,17.2-1,5.2-1.88,9-2.08,9.83-2.29,9.73-8,45.3-6.85,96.38.21,8.85.69,21.31,1.94,36.29l55.75.27c4.68-58.74,15.21-102.91,28.16-103.65,13.14-.76,29,43.24,40.44,104.5Z" transform="translate(-41.92 -14.85)"/></g><g id="Layer_8" data-name="Layer 8"><path class="cls-1" d="M884.14,952.09c-17.52,1.65-39.58,2.9-98.72,2.51a79.7,79.7,0,0,1-13.11-.11c-40.5-4.68-80.5-6.68-120.07.84-4.81.5-9.55,1.08-14.27,1.55-14.16,1.43-28.16,1.93-41.16-3.07,13.5.5,27-.25,40.56-1.18l13.62-1q6-1,12.12-1.66c32.7-4.21,66.7-2.21,100.19-1q7.22.33,14.46.59t14.51.45c33.54,2.76,66.54,1.76,101,1.1C891.87,951.31,888.46,951.68,884.14,952.09Z" transform="translate(-41.92 -14.85)"/><path class="cls-1" d="M673.39,960.07c-6.06-.67-12.23,2.36-17.68-1.31a66.37,66.37,0,0,1,8.82-.2A60.69,60.69,0,0,1,673.39,960.07Z" transform="translate(-41.92 -14.85)"/><path class="cls-1" d="M720,953.57a56.34,56.34,0,0,1-10.13.29c-3.43-.16-8.4-.26-15.08-.05,10-2,19.22-.84,29.73-1C723.48,953.05,721.92,953.34,720,953.57Z" transform="translate(-41.92 -14.85)"/><path class="cls-1" d="M788.81,958.81c15,0,31-6,46.06-1.14C834.87,957.67,803.81,961.81,788.81,958.81Z" transform="translate(-41.92 -14.85)"/></g><g id="Fishingrod"><path class="cls-1" d="M773.17,831.61c.15-11.18-.13-22.37-.51-33.54s-1-22.34-1.61-33.49q-2.14-33.47-5.81-66.78t-8.86-66.41c-3.39-22.07-7.39-44-11.77-65.91-9-43.71-19.53-87.12-32.7-129.74A1253.62,1253.62,0,0,0,666.46,310c-1-2.59-2.17-5.14-3.3-7.68l-3.37-7.65L653,279.41l-7.16-15.1-3.58-7.55c-1.21-2.51-2.35-5.06-3.65-7.52l-7.59-14.89-3.8-7.44c-.63-1.24-1.25-2.49-1.9-3.72l-2-3.66-4-7.32c-1.32-2.45-2.74-4.83-4.11-7.25s-2.74-4.83-4.15-7.22l-4.28-7.15a507.39,507.39,0,0,0-38-54.64c-7-8.6-14.23-17-21.82-25.07S531.52,95.1,523.23,87.76a302.07,302.07,0,0,0-54.07-38.31,253.89,253.89,0,0,0-61.61-24.37,244.9,244.9,0,0,0-66-7.33,236.59,236.59,0,0,0-33.25,3.13c-5.5.9-11,2-16.4,3.32A145.13,145.13,0,0,0,275.81,29a145,145,0,0,1,15.87-5.47c5.38-1.57,10.84-2.88,16.34-4a239,239,0,0,1,67.13-3.84,243.84,243.84,0,0,1,33.42,5.08A258.32,258.32,0,0,1,472,44.25a281.23,281.23,0,0,1,29,17.54,314.22,314.22,0,0,1,26.87,20.67c8.57,7.36,16.79,15.13,24.68,23.21S567.81,122.3,575,131a513.61,513.61,0,0,1,39.09,55.17l4.42,7.21c1.45,2.41,2.82,4.87,4.24,7.3s2.85,4.86,4.19,7.33l4,7.41,2,3.71c.66,1.24,1.29,2.49,1.94,3.74l3.85,7.49,7.7,15c1.32,2.48,2.47,5,3.7,7.56l3.64,7.6,7.26,15.2L668,291.08l3.43,7.69c1.15,2.57,2.3,5.12,3.34,7.73a1233,1233,0,0,1,45.31,126.8l2.41,8.06,2.25,8.11,4.49,16.22c1.45,5.42,2.79,10.87,4.19,16.3s2.83,10.86,4.06,16.33c2.55,10.93,5.2,21.83,7.43,32.83l1.74,8.23c.59,2.74,1.17,5.48,1.68,8.24l3.17,16.52q12.4,66.14,18.15,133.23c1.84,22.33,3.22,44.7,3.91,67.09S774.3,809.26,773.17,831.61Z" transform="translate(-41.92 -14.85)"/></g><g id="Line"><path class="cls-1" d="M275.81,29c9.17,7.57,18,15.59,26.55,23.84s16.9,16.76,24.92,25.58,15.47,18.13,22.61,27.68A286.63,286.63,0,0,1,369.55,136a167.22,167.22,0,0,1,14.51,32.74c3.5,11.43,5.41,23.57,4,35.6a60.69,60.69,0,0,1-4.78,17.42A61.49,61.49,0,0,1,373.51,237c-4,4.5-8,8.76-11.87,13.31l-2.91,3.36c-1,1.13-1.9,2.28-2.85,3.42-1.88,2.29-3.8,4.55-5.62,6.9a349.34,349.34,0,0,0-38.72,59.5,244,244,0,0,0-13.79,32.7A172.17,172.17,0,0,0,293,373.23c-.62,2.88-1.18,5.78-1.57,8.69-.09.72-.18,1.45-.24,2.17L291,386.3c-.12,1.47-.21,2.94-.28,4.42a173.4,173.4,0,0,0,2.08,35.33,131.75,131.75,0,0,0,10,33.84,106.16,106.16,0,0,0,8.5,15.47,83.06,83.06,0,0,0,5.27,7.1,81.91,81.91,0,0,0,6,6.54,84.89,84.89,0,0,0,13.82,11.08,92.84,92.84,0,0,0,15.83,8.07h0v0l7.23,10.69-7.34-10.62,0,0A94.36,94.36,0,0,1,336,500.61a86.4,86.4,0,0,1-14.26-10.8,94.13,94.13,0,0,1-20.8-29.07,136.32,136.32,0,0,1-10.15-34.36,176.08,176.08,0,0,1-2.09-35.75c.06-1.5.16-3,.28-4.49l.2-2.22c.07-.77.16-1.51.26-2.26.4-3,1-5.93,1.6-8.86a177.43,177.43,0,0,1,4.82-17.27,245.79,245.79,0,0,1,13.9-33,351.09,351.09,0,0,1,38.95-59.85c1.83-2.36,3.75-4.63,5.64-6.93,1-1.14,1.89-2.3,2.86-3.43l2.93-3.38c3.83-4.54,8-8.91,11.87-13.31A59.59,59.59,0,0,0,381.43,221,58.64,58.64,0,0,0,386,204.1c1.4-11.66-.44-23.53-3.89-34.77A165,165,0,0,0,367.81,137a284.75,284.75,0,0,0-19.53-29.67c-7.07-9.51-14.66-18.64-22.5-27.54A555.31,555.31,0,0,0,275.81,29Z" transform="translate(-41.92 -14.85)"/></g><g id="Fish"><g id="surface1"><path class="cls-2" d="M400.08,544.36a219.73,219.73,0,0,1,13.44,62.3c.44,7,.55,13.57.33,19.6a43.75,43.75,0,0,1,17.34,16.3c3.66,6.24,5.16,12.49,6.69,19.58a128.81,128.81,0,0,1,2.29,14.62,47.17,47.17,0,0,0-9.71-14.93A58.24,58.24,0,0,0,416.17,651a42,42,0,0,0-4.64,11.05,34.47,34.47,0,0,0-1.17,11.55,35.1,35.1,0,0,0-7.89-8.7,41.79,41.79,0,0,0-10.34-6.08,57.93,57.93,0,0,0-5,17.22,47.37,47.37,0,0,0,1.15,17.77,132.4,132.4,0,0,1-6.91-13.08c-3-6.59-5.55-12.49-6.36-19.69a43.61,43.61,0,0,1,4.16-23.36,153.69,153.69,0,0,1-37.78-73.27" transform="translate(-41.92 -14.85)"/><path class="cls-2" d="M346,581.15a191.06,191.06,0,0,0,10.24,45.65,24.52,24.52,0,0,1,.61-11.94,23.74,23.74,0,0,1,2.1-4.79" transform="translate(-41.92 -14.85)"/><path class="cls-2" d="M402.77,552a47.08,47.08,0,0,1,8.65,10,53.19,53.19,0,0,1,5.49,11,15.6,15.6,0,0,0-4.27-4.69,11,11,0,0,0-5.64-2.07" transform="translate(-41.92 -14.85)"/><path class="cls-2" d="M413.06,600.73a17.15,17.15,0,0,1,4.21,3,16.94,16.94,0,0,1,3.93,6.07,48.59,48.59,0,0,0-9.72-21.9" transform="translate(-41.92 -14.85)"/><path class="cls-2" d="M341.44,564.41q14.63-5,29.45-10t29.28-9.77c-1.18-4.58-6.24-22-23.28-32a49,49,0,0,0-18.67-6.33q2.05,8.38,4.12,16.78l-10.53-15a33.85,33.85,0,0,0-7.21,7.55,40.47,40.47,0,0,0-4.93,10.71C335.62,540.28,341.17,563.29,341.44,564.41Z" transform="translate(-41.92 -14.85)"/></g></g></svg>