<?xml version="1.0" encoding="UTF-8"?>
<svg xmlns="http://www.w3.org/2000/svg" xmlns:xlink="http://www.w3.org/1999/xlink" width="300px" height="150px" viewBox="0 0 300 150" version="1.1">
<g id="surface1">
<path style="fill:none;stroke-width:3;stroke-linecap:butt;stroke-linejoin:miter;stroke:rgb(0%,0%,0%);stroke-opacity:1;stroke-miterlimit:10;" d="M 189.29 104.31 C 166.59 105.07 136.78 103.67 104.21 95.18 C 95.13 92.82 86.69 90.2 79.09 87.41 C 67.75 98.02 56.3 101.28 50.98 102.4 C 41.48 104.4 32.88 103.67 23.2 102.64 C 14.58 101.73 7.33 100.23 3.61 99.41 C 9.49 99.04 17.6 97.68 26.74 93.43 C 35.25 89.47 41.89 84.29 46.57 79.98 C 43.75 76.78 39.73 72.85 34.45 69.52 C 28.91 66.02 23.96 64.06 20.23 63.23 C 23.96 62.4 29.1 60.44 34.65 56.94 C 39.93 53.61 43.95 49.69 46.77 46.48 C 42.1 42.17 35.46 36.99 26.94 33.03 C 17.8 28.78 9.69 27.43 3.81 27.05 C 7.52 26.23 14.78 24.74 23.4 23.82 C 33.07 22.79 41.67 22.06 51.18 24.06 C 56.5 25.18 67.84 28.43 79.19 39.05 C 88.73 34.77 99.88 30.62 112.55 27.36 C 142.87 19.57 169.58 20.05 188.55 22.15 " transform="matrix(1.171875,0,0,1.171875,0,0)"/>
<path style="fill:none;stroke-width:3;stroke-linecap:butt;stroke-linejoin:miter;stroke:rgb(0%,0%,0%);stroke-opacity:1;stroke-miterlimit:10;" d="M 165.33 20.86 C 156.75 18.95 147.14 17.26 136.62 16.12 C 124.22 14.78 112.86 14.45 102.82 14.67 C 106.32 15.12 112.09 16.39 117.77 20.42 C 119.93 21.95 121.65 23.57 122.99 25.06 " transform="matrix(1.171875,0,0,1.171875,0,0)"/>
<path style="fill:none;stroke-width:3;stroke-linecap:butt;stroke-linejoin:miter;stroke:rgb(0%,0%,0%);stroke-opacity:1;stroke-miterlimit:10;" d="M 178.36 104.49 C 174.81 106.57 169.32 109.28 161.96 111.19 C 155.47 112.88 149.71 113.37 145.56 113.47 C 147.18 113.12 150.35 112.25 153.34 110.07 C 156.56 107.72 157.87 105.09 158.38 103.84 " transform="matrix(1.171875,0,0,1.171875,0,0)"/>
<path style="fill:none;stroke-width:3;stroke-linecap:butt;stroke-linejoin:miter;stroke:rgb(0%,0%,0%);stroke-opacity:1;stroke-miterlimit:10;" d="M 111.96 97.08 C 110.7 98.3 108.83 99.83 106.29 101.1 C 102.5 103 99 103.43 96.9 103.51 C 101.28 104.17 107.16 104.6 114.01 103.85 C 120.02 103.19 125.06 101.8 128.91 100.44 " transform="matrix(1.171875,0,0,1.171875,0,0)"/>
<path style="fill:none;stroke-width:3;stroke-linecap:butt;stroke-linejoin:miter;stroke:rgb(0%,0%,0%);stroke-opacity:1;stroke-miterlimit:10;" d="M 188.56 22.19 C 188.71 35.85 188.82 49.59 188.88 63.41 C 188.94 77.13 188.96 90.77 188.93 104.32 C 195.26 104.75 219.6 105.66 239.6 88.43 C 247.86 81.32 252.74 73.38 255.57 67.59 C 247.86 66.98 240.15 66.37 232.44 65.76 C 240.3 63.43 248.16 61.11 256.01 58.78 C 254.92 55.67 252.97 51.2 249.45 46.56 C 249.45 46.56 245.04 40.75 237.89 35.89 C 221.77 24.95 190.11 22.31 188.56 22.19 Z M 188.56 22.19 " transform="matrix(1.171875,0,0,1.171875,0,0)"/>
<path style="fill:none;stroke-width:5;stroke-linecap:butt;stroke-linejoin:miter;stroke:rgb(0%,0%,0%);stroke-opacity:1;stroke-miterlimit:10;" d="M 33.66 31.09 L 79.19 50.89 L 42.6 63.73 L 79.2 78.12 C 64.77 84.2 50.33 90.29 35.9 96.37 " transform="matrix(1.171875,0,0,1.171875,0,0)"/>
<path style="fill:none;stroke-width:5;stroke-linecap:butt;stroke-linejoin:miter;stroke:rgb(0%,0%,0%);stroke-opacity:1;stroke-miterlimit:10;" d="M 105.75 63.73 C 128.62 63.77 151.49 63.8 174.36 63.84 " transform="matrix(1.171875,0,0,1.171875,0,0)"/>
<path style="fill:none;stroke-width:5;stroke-linecap:butt;stroke-linejoin:miter;stroke:rgb(0%,0%,0%);stroke-opacity:1;stroke-miterlimit:10;" d="M 193.59 63.53 C 193.55 52.46 193.52 41.4 193.48 30.33 C 199.14 30.43 204.8 30.52 210.46 30.62 C 211.28 30.8 219.14 32.68 222.49 40.43 C 222.85 41.26 225.43 47.52 222.34 53.97 C 219.43 60.03 212.7 63.77 205.34 63.39 C 201.41 63.44 197.5 63.48 193.59 63.53 Z M 193.59 63.53 " transform="matrix(1.171875,0,0,1.171875,0,0)"/>
<path style="fill:none;stroke-width:5;stroke-linecap:butt;stroke-linejoin:miter;stroke:rgb(0%,0%,0%);stroke-opacity:1;stroke-miterlimit:10;" d="M 193.59 63.53 C 193.63 74.76 193.67 85.99 193.7 97.23 C 199.75 97.15 205.79 97.07 211.84 96.99 C 212.58 96.8 220.35 94.69 223.23 87.02 C 226.07 79.46 221.75 72.94 220.99 71.78 C 215.74 63.84 206.3 63.42 205.32 63.39 C 201.41 63.44 197.5 63.48 193.59 63.53 Z M 193.59 63.53 " transform="matrix(1.171875,0,0,1.171875,0,0)"/>
</g>
</svg>
